<svg xmlns="http://www.w3.org/2000/svg" width="19" height="19" viewBox="0 0 19 19">
  <defs>
    <style>
      .cls-1 {
        fill: #979797;
      }
    </style>
  </defs>
  <g id="iconfinder_line-chart_2_322455" transform="translate(0 144)">
    <path id="Path_400" data-name="Path 400" class="cls-1" d="M1.188-126.187H19V-125H0v-19H2.375v1.188H1.188v2.375H2.375v1.188H1.188v2.375H2.375v1.188H1.188v2.375H2.375v1.188H1.188v2.375H2.375v1.188H1.188Zm13.606-10.071c-.068,1.049-.154,2.352-.544,2.352-.695,0-.885-.378-1.218-1.375-.308-.923-.729-2.187-2.345-2.187-1.691,0-2.049,2.157-2.366,4.059-.228,1.366-.511,3.066-1.2,3.066-1.212,0-1.779-3.189-1.781-5.344H4.156c0,.668.084,6.531,2.969,6.531,1.692,0,2.05-2.156,2.367-4.059.229-1.366.511-3.066,1.2-3.066s.885.377,1.218,1.375c.309.924.73,2.188,2.345,2.188,1.5,0,1.619-1.761,1.729-3.46.186-2.841.511-4.852,3.021-4.852v-1.187C15.183-142.219,14.949-138.631,14.794-136.259Z"/>
  </g>
</svg>
