<svg xmlns="http://www.w3.org/2000/svg" width="32" height="21" viewBox="0 0 32 21">
  <g id="iconfinder_user_group_man_man_2639942" transform="translate(0 -3)">
    <path id="Path_401" data-name="Path 401" d="M12.684,17.869A1.958,1.958,0,0,1,12,17V15.25a4.89,4.89,0,0,0,1.734-2.1,3.769,3.769,0,0,1-.664-1.7,2.61,2.61,0,0,1,.223-1.536A5.461,5.461,0,0,1,13,8.25a6.959,6.959,0,0,1,.8-3.287,2.639,2.639,0,0,0-1.8-.65S11.626,3,9.5,3A5.13,5.13,0,0,0,4,8.25a4.71,4.71,0,0,0,.528,1.937.979.979,0,0,0-.474,1.048c.164,1.123.72,1.407,1.074,1.431A4.573,4.573,0,0,0,7,15.25V17c-1,2.625-7,.875-7,7H9A6.153,6.153,0,0,1,12.684,17.869Z"/>
    <g id="Group_365" data-name="Group 365" transform="translate(13 3.001)">
      <path id="Path_402" data-name="Path 402" d="M23,17V15.25a4.574,4.574,0,0,0,1.872-2.583c.354-.024.91-.308,1.074-1.431a.978.978,0,0,0-.474-1.048A4.19,4.19,0,0,0,26,8.251c0-2.124-.953-3.937-3-3.937C23,4.313,22.626,3,20.5,3A5.129,5.129,0,0,0,15,8.25a4.71,4.71,0,0,0,.528,1.937.979.979,0,0,0-.474,1.048c.164,1.123.72,1.407,1.074,1.431A4.573,4.573,0,0,0,18,15.25V17c-1,2.625-7,.875-7,7H30C30,17.875,24,19.625,23,17Z" transform="translate(-11 -3.001)"/>
    </g>
  </g>
</svg>
