<svg xmlns="http://www.w3.org/2000/svg" width="29.809" height="22.379" viewBox="0 0 29.809 22.379">
  <g id="iconfinder_00-ELASTOFONT-STORE-READY_sliders_2738302" transform="translate(-1 -3.991)">
    <path id="Path_395" data-name="Path 395" d="M1.932,8.66h8.3a3.719,3.719,0,0,0,7.211,0H29.878a.932.932,0,0,0,0-1.863H17.439a3.719,3.719,0,0,0-7.211,0h-8.3a.932.932,0,0,0,0,1.863Zm11.9-2.806A1.874,1.874,0,1,1,11.96,7.728,1.876,1.876,0,0,1,13.834,5.854Z" fill="#88c601"/>
    <path id="Path_396" data-name="Path 396" d="M29.878,12.8H27.883a3.719,3.719,0,0,0-7.21,0H1.932a.932.932,0,1,0,0,1.863H20.672a3.719,3.719,0,0,0,7.21,0h1.995a.932.932,0,1,0,0-1.863Zm-5.6,2.806a1.874,1.874,0,1,1,1.874-1.874A1.876,1.876,0,0,1,24.277,15.6Z" transform="translate(0 1.452)" fill="#88c601"/>
    <path id="Path_397" data-name="Path 397" d="M29.878,18.8H11.828a3.718,3.718,0,0,0-7.209,0H1.932a.932.932,0,1,0,0,1.863H4.619a3.718,3.718,0,0,0,7.209,0H29.878a.932.932,0,1,0,0-1.863ZM8.224,21.6A1.874,1.874,0,1,1,10.1,19.728,1.876,1.876,0,0,1,8.224,21.6Z" transform="translate(0 2.905)" fill="#88c601"/>
  </g>
</svg>
