<svg xmlns="http://www.w3.org/2000/svg" viewBox="0 0 23 24"><defs><style>.a{opacity:0.5;}.b,.c{fill:none;stroke:#fff;stroke-linejoin:round;stroke-miterlimit:10;stroke-width:2px;}.b{stroke-linecap:round;}.d{fill:#fff;stroke:#707070;}</style></defs><g class="a" transform="translate(-3 -3)"><path class="b" d="M7,22V4H25V22a4,4,0,0,1-4,4"/><path class="b" d="M17,22H4a4,4,0,0,0,4,4H21A4,4,0,0,1,17,22Z"/><line class="c" x2="6" transform="translate(15 13)"/><line class="c" x2="2" transform="translate(11 13)"/><line class="c" x2="6" transform="translate(15 17)"/><line class="c" x2="2" transform="translate(11 17)"/><line class="c" x2="6" transform="translate(15 9)"/><line class="c" x2="2" transform="translate(11 9)"/><path class="d" d="M17,22H4a4,4,0,0,0,4,4H21A4,4,0,0,1,17,22Z"/></g></svg>