<svg xmlns="http://www.w3.org/2000/svg" viewBox="0 0 28 24.506">
  <defs>
    <style>
      .cls-1 {
        fill: #fff;
        opacity: 0.5;
      }
    </style>
  </defs>
  <path id="iconfinder_friend_group_people_team_members_3994366" class="cls-1" d="M23.59,21.182a5.24,5.24,0,1,0-8.775-5.731,8.767,8.767,0,0,0-1.725-1.269,5.25,5.25,0,1,0-8.68,0A8.72,8.72,0,0,0,0,21.735a1.749,1.749,0,0,0,1.75,1.75H12.294a8.667,8.667,0,0,0-1.794,5.25,1.749,1.749,0,0,0,1.75,1.75h14A1.749,1.749,0,0,0,28,28.735a8.72,8.72,0,0,0-4.41-7.552Zm-4.34-4.7a1.75,1.75,0,1,1-1.75,1.75,1.75,1.75,0,0,1,1.75-1.75ZM7,11.235a1.75,1.75,0,1,1,1.75,1.75A1.75,1.75,0,0,1,7,11.235Zm1.75,5.25a5.255,5.255,0,0,1,4.949,3.5H3.8a5.255,5.255,0,0,1,4.949-3.5Zm5.551,10.5a5.249,5.249,0,0,1,9.9,0Z" transform="translate(0 -5.979)"/>
</svg>
