<svg xmlns="http://www.w3.org/2000/svg" viewBox="0 0 13.497 24">
  <defs>
    <style>
      .cls-1 {
        fill: #fff;
      }
    </style>
  </defs>
  <path id="dollar-sign" class="cls-1" d="M9.841,10.941,4.778,9.459A1.383,1.383,0,0,1,5.168,6.75H8.275a2.861,2.861,0,0,1,1.6.492.731.731,0,0,0,.914-.094l1.631-1.594a.76.76,0,0,0-.084-1.148A6.628,6.628,0,0,0,8.285,3V.75A.752.752,0,0,0,7.535,0h-1.5a.752.752,0,0,0-.75.75V3H5.168A5.136,5.136,0,0,0,.058,8.606a5.366,5.366,0,0,0,3.928,4.528l4.8,1.406A1.383,1.383,0,0,1,8.4,17.25H5.294a2.861,2.861,0,0,1-1.6-.492.731.731,0,0,0-.914.094L1.146,18.445a.76.76,0,0,0,.084,1.148A6.628,6.628,0,0,0,5.285,21v2.25a.752.752,0,0,0,.75.75h1.5a.752.752,0,0,0,.75-.75V20.991a5.3,5.3,0,0,0,4.955-3.408,5.147,5.147,0,0,0-3.4-6.642Z" transform="translate(-0.036)"/>
</svg>
