<svg xmlns="http://www.w3.org/2000/svg" viewBox="0 0 33.325 25.999">
  <defs>
    <style>
      .cls-1 {
        opacity: 0.5;
      }

      .cls-2 {
        fill: #fff;
      }
    </style>
  </defs>
  <g id="iconfinder_basket_925892" class="cls-1" transform="translate(0 -56.3)">
    <g id="Group_360" data-name="Group 360" transform="translate(9.927 75.087)">
      <path id="Path_400" data-name="Path 400" class="cls-2" d="M156.106,352.113a3.606,3.606,0,1,1,3.606-3.606A3.61,3.61,0,0,1,156.106,352.113Zm0-5.839a2.233,2.233,0,1,0,2.233,2.233A2.236,2.236,0,0,0,156.106,346.274Z" transform="translate(-152.5 -344.9)"/>
      <path id="Path_401" data-name="Path 401" class="cls-2" d="M313.206,352.113a3.606,3.606,0,1,1,3.606-3.606A3.61,3.61,0,0,1,313.206,352.113Zm0-5.839a2.233,2.233,0,1,0,2.233,2.233A2.236,2.236,0,0,0,313.206,346.274Z" transform="translate(-299.374 -344.9)"/>
    </g>
    <path id="Path_402" data-name="Path 402" class="cls-2" d="M27.321,76.115H9.973a.676.676,0,0,1-.664-.527L4.954,57.674H.684a.687.687,0,0,1,0-1.374H5.494a.676.676,0,0,1,.664.527l1.367,5.624H32.639a.674.674,0,0,1,.573.312.7.7,0,0,1,.059.651l-5.318,12.3A.7.7,0,0,1,27.321,76.115ZM10.513,74.742H26.871L31.6,63.819H7.864Z"/>
  </g>
</svg>
